<svg width="53" height="25" viewBox="0 0 53 25" fill="black" xmlns="http://www.w3.org/2000/svg">
<path d="M8.00651 0H12.0213L7.12972 8.19861L12.0213 18.2781H7.89115L3.71484 8.92202H3.66869V18.2781H0V0H3.66869V7.81279H3.71484L8.00651 0Z"/>
<path d="M16.4978 11.9603L11.9292 0H15.9209L18.5282 7.71634L21.3201 0H25.058L20.1664 11.9603V18.2781H16.4978V11.9603Z"/>
<path d="M26.9268 18.2781V0H30.5955V15.2398H36.0639V18.2781H26.9268Z"/>
<path d="M41.509 0H37.8403V18.2781H41.509V0Z"/>
<path d="M43.2632 18.2781V0H52.8156V2.82129H46.9088V7.33052H52.3542V10.1277H46.9088V15.4809H53.0002V18.2781H43.2632Z"/>
<path d="M27.3422 20.5449V23.5109C27.3422 24.0655 26.9269 24.4272 26.2116 24.4272C25.4964 24.4272 25.1733 24.1137 25.1733 23.4144V23.101H25.9578V23.4144C25.9578 23.7038 26.0271 23.8726 26.2578 23.8726C26.4885 23.8726 26.5808 23.752 26.5808 23.3903V20.5449H27.3422Z"/>
<path d="M12.8288 20.5449V22.1605L13.7287 20.5449H14.5593L13.5441 22.257L14.5593 24.3549H13.7056L12.8288 22.4258V24.3549H12.0674V20.5449H12.8288Z"/>
<path d="M15.4361 20.5449L15.9899 22.1605L16.5667 20.5449H17.3512L16.336 22.9563V24.3549H15.5515V22.9563L14.6055 20.5449H15.4361Z"/>
<path d="M18.4129 20.5449V23.7279H19.5435V24.3549H17.6284V20.5449H18.4129Z"/>
<path d="M20.674 20.5449V24.3549H19.9126V20.5449H20.674Z"/>
<path d="M23.0043 20.5449V21.1236H21.7814V22.0641H22.912V22.6669H21.7814V23.7761H23.0505V24.379H21.02V20.5449H23.0043Z"/>
<path d="M29.6954 20.5449V21.1236H28.4725V22.0641H29.6031V22.6669H28.4725V23.7761H29.7415V24.379H27.688V20.5449H29.6954Z"/>
<path d="M31.1031 20.5449L32.0722 23.1974V20.5449H32.7875V24.3549H31.7953L30.8032 21.5577V24.3549H30.0879V20.5449H31.1031Z"/>
<path d="M34.172 20.5449L35.1411 23.1974V20.5449H35.8563V24.3549H34.8642L33.872 21.5577V24.3549H33.1567V20.5449H34.172Z"/>
<path d="M38.2099 20.5449V21.1236H36.987V22.0641H38.1176V22.6669H36.987V23.7761H38.2561V24.379H36.2256V20.5449H38.2099Z"/>
<path d="M39.8711 20.5449C40.5402 20.5449 40.8633 20.8584 40.8633 21.5577C40.8633 22.1123 40.6556 22.4017 40.1941 22.4981C40.6325 22.5705 40.8171 22.7151 40.8402 23.2456L40.8863 23.8967C40.9094 24.1861 40.9094 24.2825 40.9325 24.379H40.1941C40.1249 24.2343 40.1018 24.162 40.1018 23.969V23.3903C40.1018 22.9322 39.9403 22.8116 39.5019 22.8116H39.3635V24.4031H38.6021V20.5449H39.8711ZM39.3635 22.2088H39.5481C39.8942 22.2088 40.1018 22.1364 40.1018 21.6541C40.1018 21.196 39.9172 21.1236 39.5481 21.1236H39.3865V22.2088H39.3635Z"/>
</svg>
